<svg aria-hidden="true" style="position: absolute; width: 0; height: 0; overflow: hidden;" version="1.1" xmlns="http://www.w3.org/2000/svg" xmlns:xlink="http://www.w3.org/1999/xlink">
<defs>
<symbol id="icon-social-tumblr" viewBox="0 0 32 32">
<path  d="M16.509 1.999l-0 6.992h7.117v2.998h-7.086l-0.010 8.7c0 1.617 0.085 2.655 0.259 3.115 0.271 0.726 1.255 1.656 3.083 1.656 1.418 0 3.331-0.42 4.764-1.476v4.664c-1.195 0.561-2.307 0.788-3.276 1.014-0.97 0.225-2.020 0.339-3.146 0.339-1.254 0-4.875-0.034-6.361-3.761-0.268-0.671-0.402-1.645-0.402-2.92v-11.326h-4.088l0.020-3.065c1.353 0 5.413-0.809 5.413-6.93l3.711-0zM16.508 0l-3.711-0c-1.121 0-2.031 0.895-2.031 1.999 0 4.576-2.59 4.931-3.383 4.931-1.117 0-2.025 0.889-2.031 1.989l-0.020 3.065c-0.003 0.532 0.21 1.042 0.591 1.42 0.189 0.187 0.413 0.335 0.66 0.436s0.512 0.153 0.779 0.153h2.057v9.327c0 1.542 0.178 2.737 0.542 3.651 0.915 2.294 3.089 5.029 8.251 5.029 1.278 0 2.493-0.132 3.613-0.392l0.224-0.052c0.948-0.219 2.159-0.493 3.459-1.103 0.346-0.162 0.639-0.418 0.844-0.738s0.313-0.689 0.313-1.067v-4.664c0-0.371-0.105-0.735-0.303-1.050s-0.481-0.571-0.818-0.737c-0.287-0.142-0.599-0.212-0.909-0.212-0.439 0-0.865 0.14-1.216 0.398-1.209 0.891-2.755 1.077-3.547 1.077-0.812 0-1.114-0.29-1.181-0.367-0.035-0.157-0.131-0.743-0.131-2.405l0.007-6.701h5.058c1.121 0 2.031-0.895 2.031-1.999v-2.998c0-1.104-0.909-1.999-2.031-1.999h-5.087v-4.994c0-1.104-0.909-1.999-2.031-1.999v0z"></path>
</symbol>
</defs>
</svg>
